<?xml version="1.0" encoding="UTF-8"?>
<svg version="1.1" xmlns="http://www.w3.org/2000/svg" width="256" height="256">
<path d="M0 0 C2.52096309 2.2275585 4.98034211 4.50638231 7.42578125 6.81640625 C8.17601562 7.5021875 8.92625 8.18796875 9.69921875 8.89453125 C25.98970564 24.32762409 36.54719771 45.38249626 42.42578125 66.81640625 C42.93431641 68.57791016 42.93431641 68.57791016 43.453125 70.375 C49.67939406 96.57123803 47.34721549 132.19370769 33.31347656 155.67773438 C29.31425088 165.31283256 34.91744071 183.11538724 36.41992188 193.32470703 C36.77609289 195.7583836 37.12111436 198.1934459 37.46484375 200.62890625 C37.63193344 201.73057129 37.63193344 201.73057129 37.80239868 202.85449219 C38.53505798 208.10753837 38.96378587 212.70877029 35.73828125 217.12890625 C30.16962073 221.19252339 23.58773962 219.53289041 17.20703125 218.6015625 C15.74287781 218.39967567 15.74287781 218.39967567 14.24914551 218.19371033 C11.14011596 217.76385285 8.0329309 217.3221313 4.92578125 216.87890625 C1.81843308 216.44094977 -1.28923284 216.00560245 -4.39758301 215.57481384 C-6.32815373 215.30672218 -8.25812485 215.03426605 -10.18737793 214.7568512 C-18.23469397 213.6302619 -23.75353549 213.56801774 -31.26171875 217.00390625 C-37.63019405 219.77556826 -43.97403296 221.95321453 -50.69921875 223.69140625 C-51.47998779 223.89403076 -52.26075684 224.09665527 -53.06518555 224.30541992 C-86.86011217 232.73868271 -122.11069223 225.39087396 -151.57421875 207.81640625 C-159.22228877 202.88765001 -165.97119945 197.05378604 -172.57421875 190.81640625 C-173.32445312 190.130625 -174.0746875 189.44484375 -174.84765625 188.73828125 C-191.13814314 173.30518841 -201.69563521 152.25031624 -207.57421875 130.81640625 C-207.91324219 129.64207031 -208.25226563 128.46773437 -208.6015625 127.2578125 C-216.17576106 95.39033191 -209.75047322 59.32290436 -192.93359375 31.51171875 C-174.64509518 2.42185818 -147.3984862 -16.88815926 -114.57421875 -26.18359375 C-113.39601563 -26.52519531 -112.2178125 -26.86679687 -111.00390625 -27.21875 C-72.50145007 -36.31548415 -29.94228791 -25.39869338 0 0 Z " fill="#31BDFE" transform="translate(210.57421875,29.18359375)"/>
<path d="M0 0 C3.30600331 0.01607812 6.61078154 0.00005959 9.91674805 -0.01904297 C35.98810181 -0.04540467 65.62697524 2.44534157 85.39526367 21.50048828 C96.94050252 34.95478237 98.39839058 51.84116797 98.2668457 68.80371094 C98.25079473 71.25659156 98.26676807 73.70781416 98.28588867 76.16064453 C98.31167306 94.67871172 95.91980739 112.1152498 82.54760742 126.07080078 C65.01815147 141.29374937 39.31522758 144.45905925 16.90307617 144.62939453 C15.86292862 144.63746628 14.82278107 144.64553802 13.75111389 144.65385437 C11.55170316 144.66762578 9.35227168 144.67837866 7.15283203 144.6862793 C4.95322179 144.69769624 2.75363692 144.71798041 0.55419922 144.74780273 C-26.48585041 145.11307093 -55.61405126 143.00756713 -76.87426758 124.32861328 C-89.59649227 110.56659138 -90.65365692 91.45611016 -90.51538086 73.71777344 C-90.4992318 71.26067024 -90.51536931 68.80519989 -90.53442383 66.34814453 C-90.55922737 48.52087873 -87.63883828 32.05874252 -74.78051758 18.70751953 C-54.74485081 1.23523954 -25.22679652 -0.14548541 0 0 Z " fill="#C9E7E9" transform="translate(124.124267578125,55.60888671875)"/>
<path d="M0 0 C20.99460438 17.4210547 34.79200152 39.71890871 42 66 C42.50853516 67.76150391 42.50853516 67.76150391 43.02734375 69.55859375 C49.25361281 95.75483178 46.92143424 131.37730144 32.88769531 154.86132812 C28.88846963 164.49642631 34.49165946 182.29898099 35.99414062 192.50830078 C36.35031164 194.94197735 36.69533311 197.37703965 37.0390625 199.8125 C37.20615219 200.91416504 37.20615219 200.91416504 37.37661743 202.03808594 C38.10927673 207.29113212 38.53800462 211.89236404 35.3125 216.3125 C29.74383948 220.37611714 23.16195837 218.71648416 16.78125 217.78515625 C15.31709656 217.58326942 15.31709656 217.58326942 13.82336426 217.37730408 C10.71433471 216.9474466 7.60714965 216.50572505 4.5 216.0625 C1.39265183 215.62454352 -1.71501409 215.1891962 -4.82336426 214.75840759 C-6.75393498 214.49031593 -8.6839061 214.2178598 -10.61315918 213.94044495 C-18.66047522 212.81385565 -24.17931674 212.75161149 -31.6875 216.1875 C-38.0559753 218.95916201 -44.39981421 221.13680828 -51.125 222.875 C-51.90576904 223.07762451 -52.68653809 223.28024902 -53.4909668 223.48901367 C-87.28589342 231.92227646 -122.53647348 224.57446771 -152 207 C-159.64807002 202.07124376 -166.3969807 196.23737979 -173 190 C-173.75023437 189.31421875 -174.50046875 188.6284375 -175.2734375 187.921875 C-193.77334345 170.39564831 -205.96581797 145.01192857 -210 120 C-209.34 120 -208.68 120 -208 120 C-207.59910156 120.79921875 -207.19820312 121.5984375 -206.78515625 122.421875 C-192.4080078 150.1981346 -168.35266615 171.68040893 -138.59814453 181.81835938 C-116.94997717 188.56471395 -92.03533226 190.01673966 -70 184 C-68.93007812 183.73316406 -67.86015625 183.46632812 -66.7578125 183.19140625 C-53.87615635 179.64816342 -41.9967597 173.66927234 -31.10546875 166.0078125 C-27.44787321 163.64302746 -23.6685277 161.76268229 -19.75 159.875 C-8.14434517 154.22266647 1.03944999 147.22383905 6.11328125 134.87109375 C7.54636211 130.23094206 8.42741555 125.48406969 9.35571289 120.72094727 C10.75061481 113.72615309 12.68547722 106.98114945 14.89404297 100.2019043 C18.21864824 89.74796537 19.34826192 79.50515037 19.25 68.5625 C19.23984863 66.91628662 19.23984863 66.91628662 19.22949219 65.23681641 C19.13276541 57.66400928 18.70987043 50.39961169 17 43 C16.75507813 41.85402344 16.51015625 40.70804688 16.2578125 39.52734375 C13.23792218 26.81975219 8.19962898 14.53305247 0.95092773 3.64428711 C0 2 0 2 0 0 Z " fill="#2782E2" transform="translate(211,30)"/>
<path d="M0 0 C0.68341461 -0.00190338 1.36682922 -0.00380676 2.07095337 -0.00576782 C24.45644161 0.00128611 48.87435716 5.05406686 65.5 21.10546875 C73.14011626 29.26522527 76.18979804 35.44848597 76 46.80078125 C75.43714415 52.16550111 73.64077352 55.95959825 70.625 60.375 C70.16351563 61.05949219 69.70203125 61.74398437 69.2265625 62.44921875 C56.91312309 78.35668236 34.67391193 84.08298135 15.7265625 86.96875 C-11.6733509 90.08564482 -39.2932464 84.94671873 -61.73828125 68.66015625 C-67.70860678 63.88164711 -71.95407628 57.63777116 -74.375 50.375 C-75.34028379 39.77066803 -74.20916778 32.37499619 -67.49609375 24.04296875 C-58.53148074 14.35194143 -46.85315615 8.27963461 -34.375 4.375 C-32.54582031 3.78525391 -32.54582031 3.78525391 -30.6796875 3.18359375 C-20.5600562 0.28241094 -10.45295696 0.00314465 0 0 Z " fill="#366879" transform="translate(127.375,89.625)"/>
<path d="M0 0 C8.93915179 8.23692543 11.7012336 21.66788688 12.28637695 33.43603516 C12.41260589 37.42889046 12.42209049 41.41812582 12.39111328 45.41259766 C12.37506231 47.86547828 12.39103565 50.31670088 12.41015625 52.76953125 C12.43594064 71.28759844 10.04407497 88.72413652 -3.328125 102.6796875 C-20.85758096 117.90263609 -46.56050484 121.06794597 -68.97265625 121.23828125 C-70.0128038 121.246353 -71.05295135 121.25442474 -72.12461853 121.26274109 C-74.32402926 121.2765125 -76.52346074 121.28726538 -78.72290039 121.29516602 C-80.92251063 121.30658296 -83.1220955 121.32686713 -85.3215332 121.35668945 C-112.36158283 121.72195765 -141.48978369 119.61645385 -162.75 100.9375 C-176.40303587 86.168591 -176.47353026 65.84561614 -176.1875 47 C-176.17240252 45.24219917 -176.15872321 43.48438556 -176.14648438 41.7265625 C-176.11393333 37.48405047 -176.06244141 33.242173 -176 29 C-175.67 29 -175.34 29 -175 29 C-174.96261719 29.66386719 -174.92523438 30.32773438 -174.88671875 31.01171875 C-174.39660619 37.99283549 -174.39660619 37.99283549 -171 44 C-167.71508627 46.18994248 -166.16904361 46.35277339 -162.3125 46.625 C-161.31863281 46.69976562 -160.32476562 46.77453125 -159.30078125 46.8515625 C-158.54152344 46.90054688 -157.78226563 46.94953125 -157 47 C-156.98582031 47.89460938 -156.97164062 48.78921875 -156.95703125 49.7109375 C-156.63136827 57.96693423 -155.55844075 64.06215337 -151 71 C-150.61328125 71.61101562 -150.2265625 72.22203125 -149.828125 72.8515625 C-139.21646249 87.19695812 -117.6742952 93.32054678 -101 96 C-73.87950884 99.76226875 -43.0538261 96.00911957 -20.625 79.1875 C-14.77271418 74.27609615 -10.35919507 68.3135047 -8 61 C-7.68441127 57.62082172 -7.68441127 57.62082172 -7.75 54.0625 C-7.74484375 52.87785156 -7.7396875 51.69320312 -7.734375 50.47265625 C-8.00006294 46.99917717 -8.75379447 44.23914532 -10 41 C-9.34 41 -8.68 41 -8 41 C-3.65343948 27.30174866 -0.41347543 14.3889448 0 0 Z " fill="#B4D6E1" transform="translate(210,79)"/>
<path d="M0 0 C3.45692211 2.57053182 5.0714059 4.61186769 5.7890625 8.92578125 C6.05437881 13.08007606 5.82337156 15.93075434 3.1875 19.25 C-1.22413338 23.3608402 -5.08961699 24.19511475 -10.9375 25.125 C-37.71521779 29.84331246 -61.31912191 45.11746481 -76.96020508 67.30541992 C-85.13794362 79.32867134 -89.84491068 92.11310807 -93 106.25 C-94.22956499 111.35742382 -95.75782968 114.20294097 -99.5625 117.8125 C-103.29413642 119.67831821 -107.49924501 119.36714677 -111.5625 118.8125 C-114.96613273 117.1452734 -117.05623362 114.85923994 -118.71875 111.421875 C-122.75657412 98.93453005 -114.2108165 80.37177167 -108.625 69.25 C-91.38497436 36.13132614 -64.25287671 13.29578449 -28.81640625 2.0390625 C-19.43098067 -0.76513944 -9.57875026 -3.19291675 0 0 Z " fill="#ADEBFF" transform="translate(120.5625,2.1875)"/>
<path d="M0 0 C7.37464836 3.28492132 12.86364456 9.90176519 16.1484375 17.1640625 C18.3759416 24.58226424 18.2052162 32.31847001 14.9375 39.375 C14.00882149 40.94759648 13.03007136 42.49186988 12 44 C11.53851563 44.68449219 11.07703125 45.36898437 10.6015625 46.07421875 C-1.71187691 61.98168236 -23.95108807 67.70798135 -42.8984375 70.59375 C-70.2983509 73.71064482 -97.9182464 68.57171873 -120.36328125 52.28515625 C-126.33360678 47.50664711 -130.57907628 41.26277116 -133 34 C-133.0685495 32.10529184 -133.08480372 30.2083166 -133.0625 28.3125 C-133.05347656 27.31863281 -133.04445312 26.32476562 -133.03515625 25.30078125 C-133.02355469 24.54152344 -133.01195312 23.78226563 -133 23 C-130.79516488 25.09491666 -129.05092847 27.2594148 -127.3125 29.75 C-117.70355011 42.53855375 -103.33836054 48.72493652 -88 52 C-82.78558836 52.56722037 -77.61464318 52.68025673 -72.375 52.625 C-71.33283829 52.62102707 -71.33283829 52.62102707 -70.2696228 52.61697388 C-51.53960607 52.48361545 -34.0273021 47.82358474 -19.125 36 C-15.19122817 33.48238603 -13.45338704 34.14357941 -9 35 C-7.16189298 33.87030762 -7.16189298 33.87030762 -6 32 C-6.04643947 30.0646559 -6.04643947 30.0646559 -6.625 28 C-7.4369902 22.70924278 -5.65295693 19.58086831 -3.28125 14.9296875 C-1.18748659 10.14211873 -0.60314622 5.15825047 0 0 Z " fill="#155A57" transform="translate(186,106)"/>
<path d="M0 0 C3.9521376 1.9760688 6.37833296 4.91220336 8 9 C8.29846407 13.70654874 7.84240308 17.75091957 5.1875 21.6875 C1.23098102 24.55791573 -2.9388193 26.872892 -7.2578125 29.15625 C-11.52602266 32.02604372 -13.06753715 35.64507625 -14.5625 40.4375 C-14.81386719 41.21867187 -15.06523438 41.99984375 -15.32421875 42.8046875 C-15.86180486 44.55106551 -16.37301639 46.30555736 -16.875 48.0625 C-18.16027692 51.41850083 -19.89551203 54.18404926 -21.87890625 57.16796875 C-23.16189886 59.10995074 -23.16189886 59.10995074 -24 62 C-34.88406696 62.6249225 -34.88406696 62.6249225 -39.125 60.25 C-44.14987354 54.22015176 -43.59977016 47.56178874 -43.1953125 40.07763672 C-42.13756086 28.82580367 -36.53954214 17.42371558 -28.23046875 9.73828125 C-19.87664492 3.22785812 -11.01083951 -2.56027119 0 0 Z " fill="#F7FEFB" transform="translate(78,64)"/>
<path d="M0 0 C3.45692211 2.57053182 5.0714059 4.61186769 5.7890625 8.92578125 C6.05437881 13.08007606 5.82337156 15.93075434 3.1875 19.25 C-1.22413338 23.3608402 -5.08961699 24.19511475 -10.9375 25.125 C-24.73615329 27.55636321 -36.43406247 33.06289042 -48.5625 39.8125 C-49.89066917 40.48939651 -51.22125542 41.16189628 -52.5625 41.8125 C-52.45550781 41.16023438 -52.34851563 40.50796875 -52.23828125 39.8359375 C-51.48121446 34.31667636 -51.03022875 30.48421359 -54.5625 25.8125 C-59.27656489 22.52361752 -63.02770217 22.52621735 -68.5625 22.8125 C-54.80168588 8.05415474 -20.10425335 -6.70141778 0 0 Z " fill="#92ECFF" transform="translate(120.5625,2.1875)"/>
<path d="M0 0 C3.30600331 0.01607812 6.61078154 0.00005959 9.91674805 -0.01904297 C23.1706973 -0.03015242 35.84135149 0.97994962 48.87573242 3.39111328 C38.82179487 13.47687684 27.53070072 20.0664094 12.87573242 20.39111328 C11.55959961 20.44138672 10.2434668 20.49166016 8.88745117 20.54345703 C-6.6167579 20.96230712 -22.11249351 19.73344601 -34.68676758 9.70361328 C-37.12426758 7.39111328 -37.12426758 7.39111328 -38.12426758 5.39111328 C-39.11426758 4.73111328 -40.10426758 4.07111328 -41.12426758 3.39111328 C-27.36338 0.67827907 -14.01202661 -0.08080873 0 0 Z " fill="#B4D6E1" transform="translate(124.124267578125,55.60888671875)"/>
<path d="M0 0 C0.33 0 0.66 0 1 0 C1.03738281 0.66386719 1.07476562 1.32773438 1.11328125 2.01171875 C1.60339381 8.99283549 1.60339381 8.99283549 5 15 C8.28491373 17.18994248 9.83095639 17.35277339 13.6875 17.625 C14.68136719 17.69976562 15.67523438 17.77453125 16.69921875 17.8515625 C17.45847656 17.90054688 18.21773437 17.94953125 19 18 C19.01417969 18.89460938 19.02835938 19.78921875 19.04296875 20.7109375 C19.36863173 28.96693423 20.44155925 35.06215337 25 42 C25.38671875 42.61101562 25.7734375 43.22203125 26.171875 43.8515625 C36.17475199 57.37397028 56.89344981 64.1876915 72.79443359 66.70751953 C81.155859 67.81632932 89.58983516 68.39461595 98 69 C98 69.33 98 69.66 98 70 C75.78193107 74.18222474 52.46846604 73.35369877 32 63 C31.39623535 62.6999707 30.7924707 62.39994141 30.17041016 62.09082031 C3.84610828 48.82719544 3.84610828 48.82719544 0 38 C-0.16902104 35.06521323 -0.232654 32.2290388 -0.1953125 29.296875 C-0.1924826 28.45908508 -0.18965271 27.62129517 -0.18673706 26.75811768 C-0.17556349 24.08859837 -0.15046421 21.4194175 -0.125 18.75 C-0.11496654 16.93750485 -0.10584133 15.12500444 -0.09765625 13.3125 C-0.0756334 8.87487007 -0.04112304 4.43749237 0 0 Z " fill="#C8E6E9" transform="translate(34,108)"/>
<path d="M0 0 C2.31854097 2.31854097 2.36596385 3.10286648 2.79370117 6.26269531 C2.91690231 7.14411194 3.04010345 8.02552856 3.16703796 8.93365479 C3.3531237 10.36641754 3.3531237 10.36641754 3.54296875 11.828125 C3.6756868 12.80988708 3.80840485 13.79164917 3.94514465 14.80316162 C4.2240636 16.88400288 4.49865794 18.96542765 4.76928711 21.04736328 C5.18421616 24.22485264 5.61748086 27.39945739 6.05273438 30.57421875 C6.32142644 32.59620645 6.58903956 34.61833788 6.85546875 36.640625 C6.9855986 37.58770325 7.11572845 38.53478149 7.24980164 39.51055908 C8.67414505 50.70580123 8.67414505 50.70580123 5.3125 55.3125 C-0.85721375 59.81472355 -8.98667761 57.49836254 -16.05029297 56.53125 C-18.12427414 56.2500984 -20.20026287 55.99149534 -22.27734375 55.734375 C-23.60434695 55.55864772 -24.93117729 55.38160909 -26.2578125 55.203125 C-27.4555127 55.04489258 -28.65321289 54.88666016 -29.88720703 54.72363281 C-33.02298945 53.99465563 -34.63595245 53.13371196 -37 51 C-36.18208984 50.50693359 -36.18208984 50.50693359 -35.34765625 50.00390625 C-20.43167636 40.59536509 -10.44945013 26.23397713 -4 10 C-3.60941406 9.04351562 -3.21882813 8.08703125 -2.81640625 7.1015625 C-1.86074257 4.74051106 -0.92193822 2.3743772 0 0 Z " fill="#1F82CA" transform="translate(241,191)"/>
<path d="M0 0 C0.33 0.99 0.66 1.98 1 3 C0.67 3.66 0.34 4.32 0 5 C-0.5174655 10.75210328 -0.5174655 10.75210328 1.75 15.875 C5.10232936 19.04108884 6.78886108 19.91191717 11.4375 20.25 C14.78156767 20.01532858 17.01044495 19.44948124 20 18 C19.82984375 18.52464844 19.6596875 19.04929687 19.484375 19.58984375 C18.1746671 23.7767291 16.98668151 27.94396985 16.0859375 32.23828125 C15.92641602 32.98150635 15.76689453 33.72473145 15.60253906 34.49047852 C15.29019153 35.96838057 14.99205374 37.44937551 14.70996094 38.93334961 C13.58338381 44.19942853 11.77703827 47.14008001 8 51 C4.26836358 52.86581821 0.06325499 52.55464677 -4 52 C-7.40363273 50.3327734 -9.49373362 48.04673994 -11.15625 44.609375 C-15.23233843 32.0036941 -6.41748152 13.05093695 -0.8828125 1.703125 C-0.59148438 1.14109375 -0.30015625 0.5790625 0 0 Z " fill="#92EBFF" transform="translate(13,69)"/>
<path d="M0 0 C3.95834791 1.95237663 6.38187704 4.92113707 8 9 C8.29846407 13.70654874 7.84240308 17.75091957 5.1875 21.6875 C-0.22406615 25.61353818 -6.01905979 29.00952989 -12 32 C-12.08636719 31.40832031 -12.17273438 30.81664063 -12.26171875 30.20703125 C-13.24831488 24.65855945 -14.43436527 21.65250778 -19 18 C-23.25102229 15.87448886 -28.67317023 16.56674946 -33.0625 18 C-33.701875 18.33 -34.34125 18.66 -35 19 C-27.94459516 6.94701673 -14.408058 -2.83954428 0 0 Z " fill="#E8F3F3" transform="translate(78,64)"/>
<path d="M0 0 C3.06290797 0.30858158 6.12523952 0.62256293 9.1875 0.9375 C10.05181641 1.02451172 10.91613281 1.11152344 11.80664062 1.20117188 C15.9203025 1.6267231 19.96211191 2.07203814 24 3 C15.06322917 12.495319 4.0093918 19.12314948 -9.35546875 19.94140625 C-10.22816406 19.96074219 -11.10085937 19.98007813 -12 20 C-13.31613281 20.05027344 -14.63226563 20.10054687 -15.98828125 20.15234375 C-29.04542641 20.50358693 -42.54209615 19.92248358 -54 13 C-51 12 -51 12 -47.25 12.9375 C-33.32170619 16.20018595 -17.50135436 14.14054328 -5.125 6.875 C-2.8081198 5.35921058 -0.96027695 3.96027695 1 2 C0.505 1.01 0.505 1.01 0 0 Z " fill="#9FC4CD" transform="translate(149,56)"/>
<path d="M0 0 C4.35204278 2.45074954 7.60882562 6.01752598 9.8125 10.5 C10.13725701 13.83250651 10.11402758 15.04167808 8.25 17.875 C5.8125 19.5 5.8125 19.5 2.3125 19.625 C-2.11457854 18.20201047 -2.69617295 16.27717326 -5.1875 12.5 C-8.35676564 11.99830585 -8.35676564 11.99830585 -11.1875 12.5 C-11.36925781 13.04269531 -11.55101562 13.58539063 -11.73828125 14.14453125 C-11.98964844 14.85996094 -12.24101562 15.57539063 -12.5 16.3125 C-12.74363281 17.02019531 -12.98726562 17.72789062 -13.23828125 18.45703125 C-14.28653214 20.71314324 -15.20776884 21.99368281 -17.1875 23.5 C-20.75 23.375 -20.75 23.375 -24.1875 22.5 C-26.6914424 18.7440864 -27.03629548 15.84162644 -26.1875 11.5 C-21.14581532 0.55541761 -11.61114785 -4.96354412 0 0 Z " fill="#30B9F9" transform="translate(171.1875,122.5)"/>
<path d="M0 0 C5.0913736 2.78584593 8.94982988 6.46540447 11.3125 11.8125 C11.96544641 15.79388052 11.95113274 18.86637742 9.625 22.3125 C6.82583204 24.12817651 5.58353386 24.46670677 2.3125 23.8125 C-1.75661105 20.90599211 -2.59126755 17.56284063 -3.6875 12.8125 C-6.51823436 12.31080585 -6.51823436 12.31080585 -9.6875 12.8125 C-10.326875 13.781875 -10.96625 14.75125 -11.625 15.75 C-13.6875 18.8125 -13.6875 18.8125 -17.1875 19.9375 C-20.6875 19.8125 -20.6875 19.8125 -23.1875 18.3125 C-24.6875 15.8125 -24.6875 15.8125 -24.8125 12.5 C-23.03536464 6.6749452 -19.81691593 3.24754117 -14.8125 -0.125 C-9.37993945 -1.97207059 -5.33902275 -1.71934631 0 0 Z " fill="#31B9FA" transform="translate(99.6875,122.1875)"/>
<path d="M0 0 C0.33 0 0.66 0 1 0 C1.07476562 0.66386719 1.14953125 1.32773438 1.2265625 2.01171875 C2.0931459 8.14541074 2.0931459 8.14541074 5.5 13.125 C10.14823274 15.61512468 13.83323337 16.05776325 19 15 C21.74365876 13.58674771 23.64549607 12.04739473 26 10 C25.74905683 15.8971646 23.82776486 19.23682331 20.375 23.984375 C18.8315875 26.04959823 18.8315875 26.04959823 18 29 C7.11593304 29.6249225 7.11593304 29.6249225 2.875 27.25 C-0.95969538 22.64836555 -1.28963258 18.95931246 -1.1875 13.0625 C-1.18685547 12.35931641 -1.18621094 11.65613281 -1.18554688 10.93164062 C-1.15381877 7.17009734 -0.8945001 3.65671641 0 0 Z " fill="#E8F3F3" transform="translate(36,97)"/>
<path d="M0 0 C0.66 0 1.32 0 2 0 C3.80411967 2.75924185 4.0127245 3.88972103 3.625 7.25 C3.41875 8.1575 3.2125 9.065 3 10 C1.11608215 6.73454239 0.50712033 3.71888239 0 0 Z " fill="#2B90EA" transform="translate(1,150)"/>
</svg>
