<svg xmlns="http://www.w3.org/2000/svg" style="display: none;">
    <symbol id="arrows-to-dot-solid" viewBox="0 0 512 512">
        <path d="M256 0c17.7 0 32 14.3 32 32V64h32c12.9 0 24.6 7.8 29.6 19.8s2.2 25.7-6.9 34.9l-64 64c-12.5 12.5-32.8 12.5-45.3 0l-64-64c-9.2-9.2-11.9-22.9-6.9-34.9s16.6-19.8 29.6-19.8h32V32c0-17.7 14.3-32 32-32zM169.4 393.4l64-64c12.5-12.5 32.8-12.5 45.3 0l64 64c9.2 9.2 11.9 22.9 6.9 34.9s-16.6 19.8-29.6 19.8H288v32c0 17.7-14.3 32-32 32s-32-14.3-32-32V448H192c-12.9 0-24.6-7.8-29.6-19.8s-2.2-25.7 6.9-34.9zM32 224H64V192c0-12.9 7.8-24.6 19.8-29.6s25.7-2.2 34.9 6.9l64 64c12.5 12.5 12.5 32.8 0 45.3l-64 64c-9.2 9.2-22.9 11.9-34.9 6.9s-19.8-16.6-19.8-29.6V288H32c-17.7 0-32-14.3-32-32s14.3-32 32-32zm297.4 54.6c-12.5-12.5-12.5-32.8 0-45.3l64-64c9.2-9.2 22.9-11.9 34.9-6.9s19.8 16.6 19.8 29.6v32h32c17.7 0 32 14.3 32 32s-14.3 32-32 32H448v32c0 12.9-7.8 24.6-19.8 29.6s-25.7 2.2-34.9-6.9l-64-64zM256 224a32 32 0 1 1 0 64 32 32 0 1 1 0-64z"/>
    </symbol>
    <symbol id="bug-solid" viewBox="0 0 512 512">
        <path d="M256 0c53 0 96 43 96 96v3.6c0 15.7-12.7 28.4-28.4 28.4H188.4c-15.7 0-28.4-12.7-28.4-28.4V96c0-53 43-96 96-96zM41.4 105.4c12.5-12.5 32.8-12.5 45.3 0l64 64c.7 .7 1.3 1.4 1.9 2.1c14.2-7.3 30.4-11.4 47.5-11.4H312c17.1 0 33.2 4.1 47.5 11.4c.6-.7 1.2-1.4 1.9-2.1l64-64c12.5-12.5 32.8-12.5 45.3 0s12.5 32.8 0 45.3l-64 64c-.7 .7-1.4 1.3-2.1 1.9c6.2 12 10.1 25.3 11.1 39.5H480c17.7 0 32 14.3 32 32s-14.3 32-32 32H416c0 24.6-5.5 47.8-15.4 68.6c2.2 1.3 4.2 2.9 6 4.8l64 64c12.5 12.5 12.5 32.8 0 45.3s-32.8 12.5-45.3 0l-63.1-63.1c-24.5 21.8-55.8 36.2-90.3 39.6V240c0-8.8-7.2-16-16-16s-16 7.2-16 16V479.2c-34.5-3.4-65.8-17.8-90.3-39.6L86.6 502.6c-12.5 12.5-32.8 12.5-45.3 0s-12.5-32.8 0-45.3l64-64c1.9-1.9 3.9-3.4 6-4.8C101.5 367.8 96 344.6 96 320H32c-17.7 0-32-14.3-32-32s14.3-32 32-32H96.3c1.1-14.1 5-27.5 11.1-39.5c-.7-.6-1.4-1.2-2.1-1.9l-64-64c-12.5-12.5-12.5-32.8 0-45.3z"/>
    </symbol>
    <symbol id="code-branch-solid" viewBox="0 0 448 512">
        <path d="M80 104a24 24 0 1 0 0-48 24 24 0 1 0 0 48zm80-24c0 32.8-19.7 61-48 73.3v87.8c18.8-10.9 40.7-17.1 64-17.1h96c35.3 0 64-28.7 64-64v-6.7C307.7 141 288 112.8 288 80c0-44.2 35.8-80 80-80s80 35.8 80 80c0 32.8-19.7 61-48 73.3V160c0 70.7-57.3 128-128 128H176c-35.3 0-64 28.7-64 64v6.7c28.3 12.3 48 40.5 48 73.3c0 44.2-35.8 80-80 80s-80-35.8-80-80c0-32.8 19.7-61 48-73.3V352 153.3C19.7 141 0 112.8 0 80C0 35.8 35.8 0 80 0s80 35.8 80 80zm232 0a24 24 0 1 0 -48 0 24 24 0 1 0 48 0zM80 456a24 24 0 1 0 0-48 24 24 0 1 0 0 48z"/>
    </symbol>
    <symbol id="code-compare-solid" viewBox="0 0 512 512">
        <path d="M320 488c0 9.5-5.6 18.1-14.2 21.9s-18.8 2.3-25.8-4.1l-80-72c-5.1-4.6-7.9-11-7.9-17.8s2.9-13.3 7.9-17.8l80-72c7-6.3 17.2-7.9 25.8-4.1s14.2 12.4 14.2 21.9v40h16c35.3 0 64-28.7 64-64V153.3C371.7 141 352 112.8 352 80c0-44.2 35.8-80 80-80s80 35.8 80 80c0 32.8-19.7 61-48 73.3V320c0 70.7-57.3 128-128 128H320v40zM456 80a24 24 0 1 0 -48 0 24 24 0 1 0 48 0zM192 24c0-9.5 5.6-18.1 14.2-21.9s18.8-2.3 25.8 4.1l80 72c5.1 4.6 7.9 11 7.9 17.8s-2.9 13.3-7.9 17.8l-80 72c-7 6.3-17.2 7.9-25.8 4.1s-14.2-12.4-14.2-21.9V128H176c-35.3 0-64 28.7-64 64V358.7c28.3 12.3 48 40.5 48 73.3c0 44.2-35.8 80-80 80s-80-35.8-80-80c0-32.8 19.7-61 48-73.3V192c0-70.7 57.3-128 128-128h16V24zM56 432a24 24 0 1 0 48 0 24 24 0 1 0 -48 0z"/>
    </symbol>
    <symbol id="code-fork-solid" viewBox="0 0 448 512">
        <path d="M80 104a24 24 0 1 0 0-48 24 24 0 1 0 0 48zm80-24c0 32.8-19.7 61-48 73.3V192c0 17.7 14.3 32 32 32H304c17.7 0 32-14.3 32-32V153.3C307.7 141 288 112.8 288 80c0-44.2 35.8-80 80-80s80 35.8 80 80c0 32.8-19.7 61-48 73.3V192c0 53-43 96-96 96H256v70.7c28.3 12.3 48 40.5 48 73.3c0 44.2-35.8 80-80 80s-80-35.8-80-80c0-32.8 19.7-61 48-73.3V288H144c-53 0-96-43-96-96V153.3C19.7 141 0 112.8 0 80C0 35.8 35.8 0 80 0s80 35.8 80 80zm208 24a24 24 0 1 0 0-48 24 24 0 1 0 0 48zM248 432a24 24 0 1 0 -48 0 24 24 0 1 0 48 0z"/>
    </symbol>
    <symbol id="code-pull-request-solid" viewBox="0 0 512 512">
        <path d="M305.8 2.1C314.4 5.9 320 14.5 320 24V64h16c70.7 0 128 57.3 128 128V358.7c28.3 12.3 48 40.5 48 73.3c0 44.2-35.8 80-80 80s-80-35.8-80-80c0-32.8 19.7-61 48-73.3V192c0-35.3-28.7-64-64-64H320v40c0 9.5-5.6 18.1-14.2 21.9s-18.8 2.3-25.8-4.1l-80-72c-5.1-4.6-7.9-11-7.9-17.8s2.9-13.3 7.9-17.8l80-72c7-6.3 17.2-7.9 25.8-4.1zM104 80A24 24 0 1 0 56 80a24 24 0 1 0 48 0zm8 73.3V358.7c28.3 12.3 48 40.5 48 73.3c0 44.2-35.8 80-80 80s-80-35.8-80-80c0-32.8 19.7-61 48-73.3V153.3C19.7 141 0 112.8 0 80C0 35.8 35.8 0 80 0s80 35.8 80 80c0 32.8-19.7 61-48 73.3zM104 432a24 24 0 1 0 -48 0 24 24 0 1 0 48 0zm328 24a24 24 0 1 0 0-48 24 24 0 1 0 0 48z"/>
    </symbol>
    <symbol id="code-solid" viewBox="0 0 640 512">
        <path d="M392.8 1.2c-17-4.9-34.7 5-39.6 22l-128 448c-4.9 17 5 34.7 22 39.6s34.7-5 39.6-22l128-448c4.9-17-5-34.7-22-39.6zm80.6 120.1c-12.5 12.5-12.5 32.8 0 45.3L562.7 256l-89.4 89.4c-12.5 12.5-12.5 32.8 0 45.3s32.8 12.5 45.3 0l112-112c12.5-12.5 12.5-32.8 0-45.3l-112-112c-12.5-12.5-32.8-12.5-45.3 0zm-306.7 0c-12.5-12.5-32.8-12.5-45.3 0l-112 112c-12.5 12.5-12.5 32.8 0 45.3l112 112c12.5 12.5 32.8 12.5 45.3 0s12.5-32.8 0-45.3L77.3 256l89.4-89.4c12.5-12.5 12.5-32.8 0-45.3z"/>
    </symbol>
    <symbol id="codepen" viewBox="0 0 512 512">
        <path d="M502.3 159.7l-234-156c-8-4.9-16.5-5-24.6 0l-234 156C3.7 163.7 0 170.8 0 178v156c0 7.1 3.7 14.3 9.7 18.3l234 156c8 4.9 16.5 5 24.6 0l234-156c6-4 9.7-11.1 9.7-18.3V178c0-7.1-3.7-14.3-9.7-18.3zM278 63.1l172.3 114.9-76.9 51.4L278 165.7V63.1zm-44 0v102.6l-95.4 63.7-76.9-51.4L234 63.1zM44 219.1l55.1 36.9L44 292.8v-73.7zm190 229.7L61.7 334l76.9-51.4L234 346.3v102.6zm22-140.9l-77.7-52 77.7-52 77.7 52-77.7 52zm22 140.9V346.3l95.4-63.7 76.9 51.4L278 448.8zm190-156l-55.1-36.9L468 219.1v73.7z"/>
    </symbol>
    <symbol id="connectdevelop" viewBox="0 0 576 512">
        <path d="M550.5 241l-50.1-86.8c1.1-2.1 1.9-4.6 1.9-7.2 0-8-6.7-14.7-14.7-15l-55.4-95.9c.5-1.6 1.1-3.2 1.1-4.8 0-8.6-7-15.3-15.3-15.3-4.8 0-8.8 2.1-11.8 5.6H299.5C296.8 18.1 292.8 16 288 16s-8.8 2.1-11.5 5.6H170.4C167.5 18.1 163.4 16 158.6 16c-8.3 0-15.3 6.7-15.3 15.3 0 1.6 .5 3.5 1.1 4.8l-56 97.2c-5.4 2.4-9.1 7.5-9.1 13.7 0 .5 .3 1.1 .3 1.6l-53.3 92.1c-7.2 1.3-12.6 7.5-12.6 15 0 7.2 5.1 13.4 12.1 15l55.2 95.4c-.5 1.6-.8 2.9-.8 4.8 0 7.2 5.1 13.4 12.1 14.7l51.7 89.7c-.5 1.6-1.1 3.5-1.1 5.4 0 8.6 7 15.3 15.3 15.3 4.8 0 8.8-2.1 11.5-5.4h106.9C279.2 493.9 283.4 496 288 496s8.8-2.1 11.5-5.4h107.1c2.7 2.9 6.7 4.8 11 4.8 8.6 0 15.3-7 15.3-15.3 0-1.6-.3-2.9-.8-4.3l51.7-90.3c7-1.3 12.1-7.5 12.1-14.7 0-1.6-.3-3.2-.8-4.8l54.9-95.4c7-1.3 12.3-7.5 12.3-15 0-7.2-5.1-13.4-11.8-14.7zM153.5 450.7l-43.7-75.8h43.7v75.8zm0-83.8h-43.7c-.3-1.1-.8-2.1-1.3-3.2l45-47.4v50.6zm0-62.4l-50.4 53.3c-1.3-.5-2.7-1.3-4-1.6L43.4 259.8c.5-1.3 .5-2.7 .5-4s0-2.4-.3-3.5l52-90c2.7-.3 5.4-1.1 7.8-2.7l50.1 52v92.9zm0-102.3l-45.8-47.4c1.3-2.1 2.1-4.8 2.1-7.8 0-.3-.3-.8-.3-1.1l43.9-15.8v72.1zm0-80.6l-43.7 15.8 43.7-75.5v59.7zm326.5 39.1l.8 1.3L445.5 329.1l-63.8-67.2 98-101.5 .3 .3zM291.8 355.1l11.5 11.8H280.5l11.3-11.8zm-.3-11.3l-83.3-85.4 79.6-84.4 83 87.6-79.3 82.2zm5.4 5.9l79.3-82.2 67.5 71.3-5.9 28.1H313.7l-16.9-17.1zM410.4 44.4c1.1 .5 2.1 1.1 3.5 1.3l57.9 100.7v.5c0 2.9 .8 5.6 2.1 7.8L376.4 256l-83-87.6L410.4 44.4zm-9.1-2.1L287.7 162.5l-57.1-60.3 166.3-60h4.3zm-123.5 0c2.7 2.7 6.2 4.3 10.2 4.3s7.5-1.6 10.2-4.3h75L224.8 95.8 173.9 42.3h103.9zm-116.2 5.6l1.1-2.1a33.8 33.8 0 0 0 2.7-.8l51.2 53.8-54.9 19.8V47.9zm0 79.3l60.8-22 59.7 63.2-79.6 84.1-41-42.1v-83.3zm0 92.7L198 257.6l-36.4 38.3v-76.1zm0 87.9l42.1-44.5 82.8 86-17.1 17.7H161.6v-59.2zm7 162.1c-1.6-1.6-3.5-2.7-5.9-3.5l-1.1-1.6v-89.7h99.9l-91.6 94.8h-1.3zm129.9 0c-2.7-2.4-6.4-4.3-10.4-4.3s-7.8 1.9-10.4 4.3h-96.4l91.6-94.8h38.3l91.6 94.8H298.4zm120-11.8l-4.3 7.5c-1.3 .3-2.4 .8-3.5 1.3l-89.2-91.9h114.4l-17.4 83zm12.9-22.2l12.9-60.8h22l-34.8 60.8zm34.8-68.8h-20.4l4.6-21.2 17.1 18.2c-.5 .8-1.1 1.9-1.3 2.9zm66.2-107.4l-55.4 96.7c-1.3 .5-2.7 1.1-4 1.9l-20.6-22 34.6-163.9 45.8 79.3c-.3 1.3-.8 2.7-.8 4.3 0 1.3 .3 2.4 .5 3.8z"/>
    </symbol>
    <symbol id="cube-solid" viewBox="0 0 512 512">
        <path d="M234.5 5.7c13.9-5 29.1-5 43.1 0l192 68.6C495 83.4 512 107.5 512 134.6V377.4c0 27-17 51.2-42.5 60.3l-192 68.6c-13.9 5-29.1 5-43.1 0l-192-68.6C17 428.6 0 404.5 0 377.4V134.6c0-27 17-51.2 42.5-60.3l192-68.6zM256 66L82.3 128 256 190l173.7-62L256 66zm32 368.6l160-57.1v-188L288 246.6v188z"/>
    </symbol>
    <symbol id="cubes-solid" viewBox="0 0 576 512">
        <path d="M290.8 48.6l78.4 29.7L288 109.5 206.8 78.3l78.4-29.7c1.8-.7 3.8-.7 5.7 0zM136 92.5V204.7c-1.3 .4-2.6 .8-3.9 1.3l-96 36.4C14.4 250.6 0 271.5 0 294.7V413.9c0 22.2 13.1 42.3 33.5 51.3l96 42.2c14.4 6.3 30.7 6.3 45.1 0L288 457.5l113.5 49.9c14.4 6.3 30.7 6.3 45.1 0l96-42.2c20.3-8.9 33.5-29.1 33.5-51.3V294.7c0-23.3-14.4-44.1-36.1-52.4l-96-36.4c-1.3-.5-2.6-.9-3.9-1.3V92.5c0-23.3-14.4-44.1-36.1-52.4l-96-36.4c-12.8-4.8-26.9-4.8-39.7 0l-96 36.4C150.4 48.4 136 69.3 136 92.5zM392 210.6l-82.4 31.2V152.6L392 121v89.6zM154.8 250.9l78.4 29.7L152 311.7 70.8 280.6l78.4-29.7c1.8-.7 3.8-.7 5.7 0zm18.8 204.4V354.8L256 323.2v95.9l-82.4 36.2zM421.2 250.9c1.8-.7 3.8-.7 5.7 0l78.4 29.7L424 311.7l-81.2-31.1 78.4-29.7zM523.2 421.2l-77.6 34.1V354.8L528 323.2v90.7c0 3.2-1.9 6-4.8 7.3z"/>
    </symbol>
    <symbol id="extension" viewBox="0 -960 960 960">
        <path d="M352-120H200q-33 0-56.5-23.5T120-200v-152q48 0 84-30.5t36-77.5q0-47-36-77.5T120-568v-152q0-33 23.5-56.5T200-800h160q0-42 29-71t71-29q42 0 71 29t29 71h160q33 0 56.5 23.5T800-720v160q42 0 71 29t29 71q0 42-29 71t-71 29v160q0 33-23.5 56.5T720-120H568q0-50-31.5-85T460-240q-45 0-76.5 35T352-120Zm-152-80h85q24-66 77-93t98-27q45 0 98 27t77 93h85v-240h80q8 0 14-6t6-14q0-8-6-14t-14-6h-80v-240H480v-80q0-8-6-14t-14-6q-8 0-14 6t-6 14v80H200v88q54 20 87 67t33 105q0 57-33 104t-87 68v88Zm260-260Z"/>
    </symbol>
    <symbol id="file-code-regular" viewBox="0 0 384 512">
        <path d="M64 464c-8.8 0-16-7.2-16-16V64c0-8.8 7.2-16 16-16H224v80c0 17.7 14.3 32 32 32h80V448c0 8.8-7.2 16-16 16H64zM64 0C28.7 0 0 28.7 0 64V448c0 35.3 28.7 64 64 64H320c35.3 0 64-28.7 64-64V154.5c0-17-6.7-33.3-18.7-45.3L274.7 18.7C262.7 6.7 246.5 0 229.5 0H64zm97 289c9.4-9.4 9.4-24.6 0-33.9s-24.6-9.4-33.9 0L79 303c-9.4 9.4-9.4 24.6 0 33.9l48 48c9.4 9.4 24.6 9.4 33.9 0s9.4-24.6 0-33.9l-31-31 31-31zM257 255c-9.4-9.4-24.6-9.4-33.9 0s-9.4 24.6 0 33.9l31 31-31 31c-9.4 9.4-9.4 24.6 0 33.9s24.6 9.4 33.9 0l48-48c9.4-9.4 9.4-24.6 0-33.9l-48-48z"/>
    </symbol>
    <symbol id="file-regular" viewBox="0 0 384 512">
        <path d="M320 464c8.8 0 16-7.2 16-16V160H256c-17.7 0-32-14.3-32-32V48H64c-8.8 0-16 7.2-16 16V448c0 8.8 7.2 16 16 16H320zM0 64C0 28.7 28.7 0 64 0H229.5c17 0 33.3 6.7 45.3 18.7l90.5 90.5c12 12 18.7 28.3 18.7 45.3V448c0 35.3-28.7 64-64 64H64c-35.3 0-64-28.7-64-64V64z"/>
    </symbol>
    <symbol id="fire-extinguisher-solid" viewBox="0 0 512 512">
        <path d="M500.3 7.3C507.7 13.3 512 22.4 512 32v96c0 9.6-4.3 18.7-11.7 24.7s-17.2 8.5-26.6 6.6l-160-32C301.5 124.9 292 115.7 289 104H224v34.8c37.8 18 64 56.5 64 101.2V384H64V240c0-44.7 26.2-83.2 64-101.2V110c-36.2 11.1-66 36.9-82.3 70.5c-5.8 11.9-20.2 16.9-32.1 11.1S-3.3 171.4 2.5 159.5C26.7 109.8 72.7 72.6 128 60.4V32c0-17.7 14.3-32 32-32h32c17.7 0 32 14.3 32 32V56h65c3-11.7 12.5-20.9 24.7-23.4l160-32c9.4-1.9 19.1 .6 26.6 6.6zM288 416v32c0 35.3-28.7 64-64 64H128c-35.3 0-64-28.7-64-64V416H288zM176 96a16 16 0 1 0 0-32 16 16 0 1 0 0 32z"/>
    </symbol>
    <symbol id="folder-solid" viewBox="0 0 512 512">
        <path d="M64 480H448c35.3 0 64-28.7 64-64V160c0-35.3-28.7-64-64-64H288c-10.1 0-19.6-4.7-25.6-12.8L243.2 57.6C231.1 41.5 212.1 32 192 32H64C28.7 32 0 60.7 0 96V416c0 35.3 28.7 64 64 64z"/>
    </symbol>
    <symbol id="font-awesome-regular" viewBox="0 0 512 512">
        <path d="M91.7 96C106.3 86.8 116 70.5 116 52C116 23.3 92.7 0 64 0S12 23.3 12 52c0 16.7 7.8 31.5 20 41l0 3 0 48 0 256 0 48 0 64 48 0 0-64 389.6 0c14.6 0 26.4-11.8 26.4-26.4c0-3.7-.8-7.3-2.3-10.7L432 272l61.7-138.9c1.5-3.4 2.3-7 2.3-10.7c0-14.6-11.8-26.4-26.4-26.4L91.7 96zM80 400l0-256 356.4 0L388.1 252.5c-5.5 12.4-5.5 26.6 0 39L436.4 400 80 400z"/>
    </symbol>
    <symbol id="hashnode" viewBox="0 0 512 512">
        <path d="M35.2 171.1C-11.7 217.1-11.7 294 35.2 340.9L171.1 476.8C217.1 523.7 294 523.7 340.9 476.8L476.8 340.9C523.7 294 523.7 217.1 476.8 171.1L340.9 35.2C294-11.7 217.1-11.7 171.1 35.2L35.2 171.1zM315.5 315.5C282.6 348.3 229.4 348.3 196.6 315.5C163.7 282.6 163.7 229.4 196.6 196.6C229.4 163.7 282.6 163.7 315.5 196.6C348.3 229.4 348.3 282.6 315.5 315.5z"/>
    </symbol>
    <symbol id="ice-cream-solid" viewBox="0 0 448 512">
        <path d="M367.1 160c.6-5.3 .9-10.6 .9-16C368 64.5 303.5 0 224 0S80 64.5 80 144c0 5.4 .3 10.7 .9 16H80c-26.5 0-48 21.5-48 48s21.5 48 48 48h53.5 181H368c26.5 0 48-21.5 48-48s-21.5-48-48-48h-.9zM96 288L200.8 497.7c4.4 8.8 13.3 14.3 23.2 14.3s18.8-5.5 23.2-14.3L352 288H96z"/>
    </symbol>
    <symbol id="keyboard-solid" viewBox="0 0 576 512">
        <path d="M64 64C28.7 64 0 92.7 0 128V384c0 35.3 28.7 64 64 64H512c35.3 0 64-28.7 64-64V128c0-35.3-28.7-64-64-64H64zm16 64h32c8.8 0 16 7.2 16 16v32c0 8.8-7.2 16-16 16H80c-8.8 0-16-7.2-16-16V144c0-8.8 7.2-16 16-16zM64 240c0-8.8 7.2-16 16-16h32c8.8 0 16 7.2 16 16v32c0 8.8-7.2 16-16 16H80c-8.8 0-16-7.2-16-16V240zm16 80h32c8.8 0 16 7.2 16 16v32c0 8.8-7.2 16-16 16H80c-8.8 0-16-7.2-16-16V336c0-8.8 7.2-16 16-16zm80-176c0-8.8 7.2-16 16-16h32c8.8 0 16 7.2 16 16v32c0 8.8-7.2 16-16 16H176c-8.8 0-16-7.2-16-16V144zm16 80h32c8.8 0 16 7.2 16 16v32c0 8.8-7.2 16-16 16H176c-8.8 0-16-7.2-16-16V240c0-8.8 7.2-16 16-16zM160 336c0-8.8 7.2-16 16-16H400c8.8 0 16 7.2 16 16v32c0 8.8-7.2 16-16 16H176c-8.8 0-16-7.2-16-16V336zM272 128h32c8.8 0 16 7.2 16 16v32c0 8.8-7.2 16-16 16H272c-8.8 0-16-7.2-16-16V144c0-8.8 7.2-16 16-16zM256 240c0-8.8 7.2-16 16-16h32c8.8 0 16 7.2 16 16v32c0 8.8-7.2 16-16 16H272c-8.8 0-16-7.2-16-16V240zM368 128h32c8.8 0 16 7.2 16 16v32c0 8.8-7.2 16-16 16H368c-8.8 0-16-7.2-16-16V144c0-8.8 7.2-16 16-16zM352 240c0-8.8 7.2-16 16-16h32c8.8 0 16 7.2 16 16v32c0 8.8-7.2 16-16 16H368c-8.8 0-16-7.2-16-16V240zM464 128h32c8.8 0 16 7.2 16 16v32c0 8.8-7.2 16-16 16H464c-8.8 0-16-7.2-16-16V144c0-8.8 7.2-16 16-16zM448 240c0-8.8 7.2-16 16-16h32c8.8 0 16 7.2 16 16v32c0 8.8-7.2 16-16 16H464c-8.8 0-16-7.2-16-16V240zm16 80h32c8.8 0 16 7.2 16 16v32c0 8.8-7.2 16-16 16H464c-8.8 0-16-7.2-16-16V336c0-8.8 7.2-16 16-16z"/>
    </symbol>
    <symbol id="laptop-code-solid" viewBox="0 0 640 512">
        <path d="M64 96c0-35.3 28.7-64 64-64H512c35.3 0 64 28.7 64 64V352H512V96H128V352H64V96zM0 403.2C0 392.6 8.6 384 19.2 384H620.8c10.6 0 19.2 8.6 19.2 19.2c0 42.4-34.4 76.8-76.8 76.8H76.8C34.4 480 0 445.6 0 403.2zM281 209l-31 31 31 31c9.4 9.4 9.4 24.6 0 33.9s-24.6 9.4-33.9 0l-48-48c-9.4-9.4-9.4-24.6 0-33.9l48-48c9.4-9.4 24.6-9.4 33.9 0s9.4 24.6 0 33.9zM393 175l48 48c9.4 9.4 9.4 24.6 0 33.9l-48 48c-9.4 9.4-24.6 9.4-33.9 0s-9.4-24.6 0-33.9l31-31-31-31c-9.4-9.4-9.4-24.6 0-33.9s24.6-9.4 33.9 0z"/>
    </symbol>
    <symbol id="microchip-solid" viewBox="0 0 512 512">
        <path d="M176 24c0-13.3-10.7-24-24-24s-24 10.7-24 24V64c-35.3 0-64 28.7-64 64H24c-13.3 0-24 10.7-24 24s10.7 24 24 24H64v56H24c-13.3 0-24 10.7-24 24s10.7 24 24 24H64v56H24c-13.3 0-24 10.7-24 24s10.7 24 24 24H64c0 35.3 28.7 64 64 64v40c0 13.3 10.7 24 24 24s24-10.7 24-24V448h56v40c0 13.3 10.7 24 24 24s24-10.7 24-24V448h56v40c0 13.3 10.7 24 24 24s24-10.7 24-24V448c35.3 0 64-28.7 64-64h40c13.3 0 24-10.7 24-24s-10.7-24-24-24H448V280h40c13.3 0 24-10.7 24-24s-10.7-24-24-24H448V176h40c13.3 0 24-10.7 24-24s-10.7-24-24-24H448c0-35.3-28.7-64-64-64V24c0-13.3-10.7-24-24-24s-24 10.7-24 24V64H280V24c0-13.3-10.7-24-24-24s-24 10.7-24 24V64H176V24zM160 128H352c17.7 0 32 14.3 32 32V352c0 17.7-14.3 32-32 32H160c-17.7 0-32-14.3-32-32V160c0-17.7 14.3-32 32-32zm192 32H160V352H352V160z"/>
    </symbol>
    <symbol id="microscope-solid" viewBox="0 0 512 512">
        <path d="M160 32c0-17.7 14.3-32 32-32h32c17.7 0 32 14.3 32 32c17.7 0 32 14.3 32 32V288c0 17.7-14.3 32-32 32c0 17.7-14.3 32-32 32H192c-17.7 0-32-14.3-32-32c-17.7 0-32-14.3-32-32V64c0-17.7 14.3-32 32-32zM32 448H320c70.7 0 128-57.3 128-128s-57.3-128-128-128V128c106 0 192 86 192 192c0 49.2-18.5 94-48.9 128H480c17.7 0 32 14.3 32 32s-14.3 32-32 32H320 32c-17.7 0-32-14.3-32-32s14.3-32 32-32zm80-64H304c8.8 0 16 7.2 16 16s-7.2 16-16 16H112c-8.8 0-16-7.2-16-16s7.2-16 16-16z"/>
    </symbol>
    <symbol id="network-wired-solid" viewBox="0 0 640 512">
        <path d="M256 64H384v64H256V64zM240 0c-26.5 0-48 21.5-48 48v96c0 26.5 21.5 48 48 48h48v32H32c-17.7 0-32 14.3-32 32s14.3 32 32 32h96v32H80c-26.5 0-48 21.5-48 48v96c0 26.5 21.5 48 48 48H240c26.5 0 48-21.5 48-48V368c0-26.5-21.5-48-48-48H192V288H448v32H400c-26.5 0-48 21.5-48 48v96c0 26.5 21.5 48 48 48H560c26.5 0 48-21.5 48-48V368c0-26.5-21.5-48-48-48H512V288h96c17.7 0 32-14.3 32-32s-14.3-32-32-32H352V192h48c26.5 0 48-21.5 48-48V48c0-26.5-21.5-48-48-48H240zM96 448V384H224v64H96zm320-64H544v64H416V384z"/>
    </symbol>
    <symbol id="plane-departure-solid" viewBox="0 0 640 512">
        <path d="M381 114.9L186.1 41.8c-16.7-6.2-35.2-5.3-51.1 2.7L89.1 67.4C78 73 77.2 88.5 87.6 95.2l146.9 94.5L136 240 77.8 214.1c-8.7-3.9-18.8-3.7-27.3 .6L18.3 230.8c-9.3 4.7-11.8 16.8-5 24.7l73.1 85.3c6.1 7.1 15 11.2 24.3 11.2H248.4c5 0 9.9-1.2 14.3-3.4L535.6 212.2c46.5-23.3 82.5-63.3 100.8-112C645.9 75 627.2 48 600.2 48H542.8c-20.2 0-40.2 4.8-58.2 14L381 114.9zM0 480c0 17.7 14.3 32 32 32H608c17.7 0 32-14.3 32-32s-14.3-32-32-32H32c-17.7 0-32 14.3-32 32z"/>
    </symbol>
    <symbol id="plane-solid" viewBox="0 0 576 512">
        <path d="M482.3 192c34.2 0 93.7 29 93.7 64c0 36-59.5 64-93.7 64l-116.6 0L265.2 495.9c-5.7 10-16.3 16.1-27.8 16.1l-56.2 0c-10.6 0-18.3-10.2-15.4-20.4l49-171.6L112 320 68.8 377.6c-3 4-7.8 6.4-12.8 6.4l-42 0c-7.8 0-14-6.3-14-14c0-1.3 .2-2.6 .5-3.9L32 256 .5 145.9c-.4-1.3-.5-2.6-.5-3.9c0-7.8 6.3-14 14-14l42 0c5 0 9.8 2.4 12.8 6.4L112 192l102.9 0-49-171.6C162.9 10.2 170.6 0 181.2 0l56.2 0c11.5 0 22.1 6.2 27.8 16.1L365.7 192l116.6 0z"/>
    </symbol>
    <symbol id="shield-halved-solid" viewBox="0 0 512 512">
        <path d="M256 0c4.6 0 9.2 1 13.4 2.9L457.7 82.8c22 9.3 38.4 31 38.3 57.2c-.5 99.2-41.3 280.7-213.6 363.2c-16.7 8-36.1 8-52.8 0C57.3 420.7 16.5 239.2 16 140c-.1-26.2 16.3-47.9 38.3-57.2L242.7 2.9C246.8 1 251.4 0 256 0zm0 66.8V444.8C394 378 431.1 230.1 432 141.4L256 66.8l0 0z"/>
    </symbol>
    <symbol id="shop-lock-solid" viewBox="0 0 640 512">
        <path d="M36.8 192H449.6c20.2-19.8 47.9-32 78.4-32c30.5 0 58.1 12.2 78.3 31.9c18.9-1.6 33.7-17.4 33.7-36.7c0-7.3-2.2-14.4-6.2-20.4L558.2 21.4C549.3 8 534.4 0 518.3 0H121.7c-16 0-31 8-39.9 21.4L6.2 134.7c-4 6.1-6.2 13.2-6.2 20.4C0 175.5 16.5 192 36.8 192zM384 224H320V384H128V224H64V384v80c0 26.5 21.5 48 48 48H336c26.5 0 48-21.5 48-48V384 352 224zm144 16c17.7 0 32 14.3 32 32v48H496V272c0-17.7 14.3-32 32-32zm-80 32v48c-17.7 0-32 14.3-32 32V480c0 17.7 14.3 32 32 32H608c17.7 0 32-14.3 32-32V352c0-17.7-14.3-32-32-32V272c0-44.2-35.8-80-80-80s-80 35.8-80 80z"/>
    </symbol>
    <symbol id="shop-solid" viewBox="0 0 640 512">
        <path d="M36.8 192H603.2c20.3 0 36.8-16.5 36.8-36.8c0-7.3-2.2-14.4-6.2-20.4L558.2 21.4C549.3 8 534.4 0 518.3 0H121.7c-16 0-31 8-39.9 21.4L6.2 134.7c-4 6.1-6.2 13.2-6.2 20.4C0 175.5 16.5 192 36.8 192zM64 224V384v80c0 26.5 21.5 48 48 48H336c26.5 0 48-21.5 48-48V384 224H320V384H128V224H64zm448 0V480c0 17.7 14.3 32 32 32s32-14.3 32-32V224H512z"/>
    </symbol>
    <symbol id="stethoscope-solid" viewBox="0 0 576 512">
        <path d="M142.4 21.9c5.6 16.8-3.5 34.9-20.2 40.5L96 71.1V192c0 53 43 96 96 96s96-43 96-96V71.1l-26.1-8.7c-16.8-5.6-25.8-23.7-20.2-40.5s23.7-25.8 40.5-20.2l26.1 8.7C334.4 19.1 352 43.5 352 71.1V192c0 77.2-54.6 141.6-127.3 156.7C231 404.6 278.4 448 336 448c61.9 0 112-50.1 112-112V265.3c-28.3-12.3-48-40.5-48-73.3c0-44.2 35.8-80 80-80s80 35.8 80 80c0 32.8-19.7 61-48 73.3V336c0 97.2-78.8 176-176 176c-92.9 0-168.9-71.9-175.5-163.1C87.2 334.2 32 269.6 32 192V71.1c0-27.5 17.6-52 43.8-60.7l26.1-8.7c16.8-5.6 34.9 3.5 40.5 20.2zM480 224a32 32 0 1 0 0-64 32 32 0 1 0 0 64z"/>
    </symbol>
    <symbol id="terminal-solid" viewBox="0 0 576 512">
        <path d="M9.4 86.6C-3.1 74.1-3.1 53.9 9.4 41.4s32.8-12.5 45.3 0l192 192c12.5 12.5 12.5 32.8 0 45.3l-192 192c-12.5 12.5-32.8 12.5-45.3 0s-12.5-32.8 0-45.3L178.7 256 9.4 86.6zM256 416H544c17.7 0 32 14.3 32 32s-14.3 32-32 32H256c-17.7 0-32-14.3-32-32s14.3-32 32-32z"/>
    </symbol>
    <symbol id="user-secret-solid" viewBox="0 0 448 512">
        <path d="M224 16c-6.7 0-10.8-2.8-15.5-6.1C201.9 5.4 194 0 176 0c-30.5 0-52 43.7-66 89.4C62.7 98.1 32 112.2 32 128c0 14.3 25 27.1 64.6 35.9c-.4 4-.6 8-.6 12.1c0 17 3.3 33.2 9.3 48H45.4C38 224 32 230 32 237.4c0 1.7 .3 3.4 1 5l38.8 96.9C28.2 371.8 0 423.8 0 482.3C0 498.7 13.3 512 29.7 512H418.3c16.4 0 29.7-13.3 29.7-29.7c0-58.5-28.2-110.4-71.7-143L415 242.4c.6-1.6 1-3.3 1-5c0-7.4-6-13.4-13.4-13.4H342.7c6-14.8 9.3-31 9.3-48c0-4.1-.2-8.1-.6-12.1C391 155.1 416 142.3 416 128c0-15.8-30.7-29.9-78-38.6C324 43.7 302.5 0 272 0c-18 0-25.9 5.4-32.5 9.9c-4.8 3.3-8.8 6.1-15.5 6.1zm56 208H267.6c-16.5 0-31.1-10.6-36.3-26.2c-2.3-7-12.2-7-14.5 0c-5.2 15.6-19.9 26.2-36.3 26.2H168c-22.1 0-40-17.9-40-40V169.6c28.2 4.1 61 6.4 96 6.4s67.8-2.3 96-6.4V184c0 22.1-17.9 40-40 40zm-88 96l16 32L176 480 128 288l64 32zm128-32L272 480 240 352l16-32 64-32z"/>
    </symbol>
</svg>
